<svg width="195" height="196" viewBox="0 0 195 196" fill="none" xmlns="http://www.w3.org/2000/svg">
<path d="M68.0732 40.04C67.5186 39.3147 67.0493 38.5253 66.6653 37.672C66.2813 36.776 65.8759 35.7093 65.4493 34.472C65.3639 34.2587 65.1079 33.6187 64.6813 32.552C64.2973 31.4853 63.8493 30.568 63.3373 29.8C60.6493 30.184 58.4519 30.376 56.7453 30.376C55.8066 30.376 54.7613 30.3547 53.6093 30.312C52.4999 30.2267 51.6679 30.184 51.1133 30.184C48.9799 30.0133 47.2733 29.928 45.9933 29.928C45.4813 30.6107 45.0333 31.336 44.6493 32.104C44.3079 32.872 43.8599 34.024 43.3053 35.56C42.5373 37.7787 41.8759 39.3573 41.3213 40.296C40.9373 40.936 40.1906 41.256 39.0813 41.256C38.1426 41.256 37.2679 41.064 36.4573 40.68C35.6893 40.2533 35.3053 39.6773 35.3053 38.952C35.6466 37.3307 36.1799 35.624 36.9053 33.832C37.6733 31.9973 38.7613 29.5653 40.1693 26.536L42.7292 20.264C44.1373 16.68 45.4173 13.608 46.5693 11.048C47.7639 8.488 49.3213 5.45867 51.2413 1.96C51.4973 1.448 51.9239 1.02133 52.5213 0.679996C53.1186 0.295996 53.7799 0.103996 54.5053 0.103996C55.3159 0.103996 55.8919 0.167997 56.2333 0.295998C56.6173 0.381332 56.9159 0.551999 57.1293 0.807999C57.3426 1.02133 57.6626 1.49067 58.0893 2.216C59.5399 4.47733 60.7773 6.80267 61.8013 9.192C62.8679 11.5813 64.2119 14.888 65.8333 19.112L67.1772 22.504C68.3719 25.576 69.3959 28.1573 70.2493 30.248C71.1453 32.296 72.1266 34.1733 73.1933 35.88C73.8759 36.9893 74.2173 37.7573 74.2173 38.184C74.2173 39.208 73.8973 39.9973 73.2573 40.552C72.6599 41.064 71.8706 41.32 70.8893 41.32C69.6519 41.32 68.7133 40.8933 68.0732 40.04ZM61.4813 24.552C60.7986 23.1013 59.8173 20.584 58.5373 17C57.2146 13.16 55.8919 10.1093 54.5693 7.848C53.7586 9.896 52.5639 12.5413 50.9853 15.784C49.9186 17.7893 48.7026 20.6907 47.3373 24.488C50.0679 24.8293 53.0119 25 56.1693 25C58.4306 25 60.2013 24.8507 61.4813 24.552ZM104.851 19.368C107.965 19.752 110.269 20.7547 111.763 22.376C113.299 23.9547 114.067 25.9173 114.067 28.264C114.067 30.6107 113.192 32.8293 111.443 34.92C109.736 37.0107 107.539 38.632 104.851 39.784C103.656 40.2533 102.077 40.5947 100.115 40.808C98.1948 41.0213 96.2108 41.128 94.1628 41.128C90.7494 41.128 87.2508 40.808 83.6667 40.168C83.0268 40.04 82.3441 39.72 81.6188 39.208C80.9361 38.696 80.5948 37.9493 80.5948 36.968C80.5521 33.0427 80.4028 27.5813 80.1468 20.584L80.0828 17.064C79.9121 11.6027 79.8268 7.31466 79.8268 4.2C79.8268 3.64533 80.1468 3.00533 80.7868 2.28C81.4694 1.512 82.2801 1.08533 83.2188 1C83.7734 1 84.3068 0.978666 84.8188 0.935997C89.6401 0.466665 92.8614 0.231998 94.4828 0.231998C97.6828 0.231998 100.499 0.551998 102.931 1.192C105.405 1.78933 107.453 2.89866 109.075 4.52C109.672 5.20266 110.163 6.07733 110.547 7.144C110.931 8.168 111.123 9.17067 111.123 10.152C111.165 12.2427 110.611 14.1627 109.459 15.912C108.349 17.6613 106.813 18.8133 104.851 19.368ZM94.8668 5.672C93.4161 5.672 91.9014 5.75733 90.3228 5.928C88.7868 6.09866 87.4854 6.312 86.4188 6.568L86.8028 18.664L89.1068 18.6C92.8188 18.216 95.5494 17.896 97.2988 17.64C98.4081 17.384 99.4961 16.8933 100.563 16.168C101.629 15.4 102.504 14.6107 103.187 13.8C103.912 12.9467 104.275 12.3067 104.275 11.88C104.275 11.24 104.147 10.6 103.891 9.96C103.635 9.27733 103.357 8.78666 103.059 8.488C101.907 7.37866 100.733 6.632 99.5388 6.248C98.3441 5.864 96.7868 5.672 94.8668 5.672ZM86.9948 35.496C89.1708 35.7947 91.2401 35.944 93.2028 35.944C97.5121 35.944 100.904 35.3893 103.379 34.28C105.896 33.128 107.155 30.952 107.155 27.752C107.155 26.472 106.195 25.4053 104.275 24.552C102.355 23.6987 100.285 23.272 98.0668 23.272C96.5734 23.272 94.6748 23.4427 92.3708 23.784C90.5361 24.04 88.7441 24.2107 86.9948 24.296C87.0801 26.856 87.1228 28.4773 87.1228 29.16C87.1228 30.4827 87.1014 31.4853 87.0588 32.168L86.9948 35.496ZM152.434 6.632C153.074 7.4 153.522 8.01866 153.778 8.488C154.034 8.95733 154.162 9.40533 154.162 9.832C154.162 10.344 153.82 10.9413 153.138 11.624C152.498 12.3067 151.858 12.648 151.218 12.648C150.364 12.648 149.682 12.52 149.17 12.264C148.658 12.008 148.231 11.6027 147.89 11.048C147.079 9.768 146.14 8.63733 145.074 7.656C144.007 6.632 142.578 6.12 140.786 6.12C139.036 6.12 137.074 6.52533 134.898 7.336C132.722 8.14666 131.122 9.14933 130.098 10.344C127.794 13.16 126.642 16.8933 126.642 21.544C126.642 25.256 127.794 28.4347 130.098 31.08C132.53 33.8107 135.602 35.176 139.314 35.176C141.02 35.176 142.876 34.8773 144.882 34.28C146.93 33.64 148.551 32.616 149.746 31.208H149.682C150.45 30.3973 151.41 29.992 152.562 29.992C153.244 29.992 153.884 30.2907 154.482 30.888C155.122 31.4853 155.442 32.0827 155.442 32.68C155.442 33.32 155.335 33.896 155.122 34.408C154.951 34.8773 154.61 35.4107 154.098 36.008C152.348 37.928 150.108 39.272 147.378 40.04C144.69 40.7653 141.618 41.128 138.162 41.128C135.303 41.128 132.551 40.4453 129.906 39.08C127.303 37.7147 125.148 35.9867 123.442 33.896C122.588 32.6587 121.756 30.888 120.946 28.584C120.178 26.2373 119.794 24.3387 119.794 22.888C119.794 19.176 120.348 15.656 121.458 12.328C122.61 8.95733 124.316 6.26933 126.578 4.264C128.071 2.89867 130.226 1.87467 133.042 1.192C135.858 0.509332 138.439 0.167999 140.786 0.167999C142.663 0.167999 144.263 0.445333 145.586 1C146.951 1.512 148.124 2.216 149.106 3.112C150.087 3.96533 151.196 5.13867 152.434 6.632ZM27.1605 109.296C27.9712 109.296 28.5685 109.616 28.9525 110.256C29.3792 110.853 29.5925 111.515 29.5925 112.24C29.5925 113.136 29.4432 113.776 29.1445 114.16C28.8885 114.501 28.3765 114.864 27.6085 115.248C25.8165 116.101 23.5978 116.784 20.9525 117.296C18.3072 117.808 15.4698 118.064 12.4405 118.064C8.64317 118.064 5.8485 117.424 4.0565 116.144C2.30717 114.864 1.21917 113.328 0.7925 111.536C0.4085 109.701 0.2165 107.312 0.2165 104.368C0.2165 101.211 0.3445 98.1173 0.6005 95.088C0.8565 92.016 1.3045 88.112 1.9445 83.376C2.24317 81.328 3.05383 79.856 4.3765 78.96C5.69917 78.0213 7.14983 77.552 8.7285 77.552C10.0512 77.552 12.2058 77.5093 15.1925 77.424L20.7605 77.36C23.0645 77.36 24.7285 77.424 25.7525 77.552C27.0325 77.808 27.9712 78.1067 28.5685 78.448C29.2085 78.7467 29.5285 79.28 29.5285 80.048C29.5285 80.9013 29.2298 81.7333 28.6325 82.544C28.0778 83.3547 27.2245 83.76 26.0725 83.76C24.7498 83.76 22.8512 83.6747 20.3765 83.504C17.9018 83.3333 16.0458 83.248 14.8085 83.248C13.7418 83.248 12.6965 83.312 11.6725 83.44C10.4778 83.5253 9.6245 83.6747 9.1125 83.888C8.6005 84.1013 8.30183 84.464 8.2165 84.976C7.61917 89.3707 7.3205 92.6133 7.3205 94.704C8.30183 94.832 9.26183 94.896 10.2005 94.896C11.3952 94.896 12.6752 94.832 14.0405 94.704C15.4058 94.576 16.2805 94.4907 16.6645 94.448C18.9258 94.2347 20.8672 94.128 22.4885 94.128C23.4272 94.128 24.1312 94.2987 24.6005 94.64C25.1125 94.9813 25.3685 95.4507 25.3685 96.048C25.3685 96.9867 25.1125 97.712 24.6005 98.224C24.1312 98.736 23.2778 99.12 22.0405 99.376C20.5472 99.6747 18.6912 99.9093 16.4725 100.08C14.2965 100.251 12.1632 100.336 10.0725 100.336C9.34717 100.336 8.3445 100.293 7.0645 100.208C6.9365 102.811 6.8725 105.221 6.8725 107.44C6.8725 110.469 8.87783 111.984 12.8885 111.984C15.0218 111.984 16.7925 111.835 18.2005 111.536C19.6085 111.237 21.2298 110.811 23.0645 110.256C24.7712 109.616 26.1365 109.296 27.1605 109.296ZM63.8885 113.072C64.1018 113.157 64.4432 113.264 64.9125 113.392C65.3818 113.52 65.7232 113.648 65.9365 113.776C66.1498 113.904 66.2565 114.096 66.2565 114.352C66.2992 115.376 65.9152 116.229 65.1045 116.912C64.3365 117.552 63.4192 117.872 62.3525 117.872C60.6885 117.872 59.3872 117.424 58.4485 116.528C57.5098 115.632 56.8272 114.267 56.4005 112.432C56.2298 111.707 56.1445 110.704 56.1445 109.424C56.1445 108.699 56.1872 107.525 56.2725 105.904C56.3578 104.197 56.4005 102.832 56.4005 101.808C56.4005 100.315 55.9738 99.0133 55.1205 97.904C54.3098 96.752 53.1578 96.176 51.6645 96.176C50.7685 96.176 49.8298 96.4533 48.8485 97.008C47.8672 97.52 47.1845 98.16 46.8005 98.928C46.1605 100.165 45.7125 101.509 45.4565 102.96C44.9872 105.52 44.7525 108.187 44.7525 110.96C44.7525 112.283 44.7738 113.307 44.8165 114.032C44.8165 114.203 44.8165 114.544 44.8165 115.056C44.8592 115.525 44.8165 115.973 44.6885 116.4C44.6032 116.784 44.4325 117.147 44.1765 117.488C43.9632 117.701 43.6218 117.872 43.1525 118C42.7258 118.171 42.3205 118.256 41.9365 118.256C41.3392 118.256 40.5925 118 39.6965 117.488C38.8005 116.976 38.2885 116.4 38.1605 115.76L38.0965 114.672C38.0965 114.288 38.1392 113.84 38.2245 113.328C38.7365 110.341 38.9925 107.739 38.9925 105.52C38.9925 104.539 38.9712 103.771 38.9285 103.216L38.8645 100.208C38.8645 99.184 38.6085 98.2027 38.0965 97.264C37.5845 96.2827 36.9872 95.792 36.3045 95.792C36.0912 95.792 35.7925 95.8773 35.4085 96.048C35.0245 96.176 34.7045 96.24 34.4485 96.24C34.0218 96.24 33.5525 96.0267 33.0405 95.6C32.5712 95.1733 32.3365 94.7253 32.3365 94.256C32.3365 93.36 32.6352 92.6347 33.2325 92.08C33.8725 91.568 34.4912 91.1627 35.0885 90.864C35.7285 90.5653 36.4538 90.416 37.2645 90.416C37.9472 90.416 38.5018 90.48 38.9285 90.608C39.3552 90.736 39.9312 91.0133 40.6565 91.44C41.0405 91.6533 41.4885 92.1227 42.0005 92.848C42.5125 93.5733 42.9392 94.5973 43.2805 95.92C44.3898 93.872 45.7552 92.4427 47.3765 91.632C49.0405 90.7787 51.1525 90.352 53.7125 90.352C54.6938 90.352 55.7392 90.672 56.8485 91.312C58.0005 91.952 58.9818 92.6987 59.7925 93.552C60.5605 94.4907 61.2005 95.664 61.7125 97.072C62.2245 98.4373 62.4805 99.6747 62.4805 100.784C62.4805 101.424 62.4378 102.469 62.3525 103.92C62.2245 105.072 62.1605 106.288 62.1605 107.568C62.1605 110.555 62.7365 112.389 63.8885 113.072ZM95.468 101.936C95.468 103.899 94.9773 105.563 93.996 106.928C93.0147 108.251 91.7133 109.424 90.092 110.448C87.8733 111.643 85.292 112.261 82.348 112.304C82.1773 112.816 82.092 113.349 82.092 113.904C82.092 114.416 82.3693 114.8 82.924 115.056C83.5213 115.269 84.5667 115.44 86.06 115.568C87.2973 115.653 88.684 115.931 90.22 116.4C91.7987 116.827 93.036 117.317 93.932 117.872C95.0413 118.683 95.8093 119.557 96.236 120.496C96.7053 121.435 96.94 122.608 96.94 124.016C96.94 125.851 96.0867 127.387 94.38 128.624C92.716 129.904 90.7533 130.843 88.492 131.44C86.2307 132.037 84.2467 132.336 82.54 132.336C80.492 132.336 78.7427 132.08 77.292 131.568C75.884 131.099 74.54 130.437 73.26 129.584C72.364 128.944 71.66 128.133 71.148 127.152C70.636 126.171 70.38 125.147 70.38 124.08C70.38 123.013 70.7213 121.989 71.404 121.008C72.1293 120.027 73.004 119.173 74.028 118.448C75.052 117.765 76.012 117.296 76.908 117.04C76.5667 116.613 76.3107 116.251 76.14 115.952C76.012 115.611 75.948 115.227 75.948 114.8C75.948 113.349 76.3107 112.133 77.036 111.152C74.988 110.469 73.3667 109.253 72.172 107.504C71.02 105.755 70.444 103.707 70.444 101.36C70.444 99.824 70.8067 98.4373 71.532 97.2C72.2573 95.92 73.26 94.704 74.54 93.552C76.716 91.5893 79.724 90.608 83.564 90.608C84.076 90.608 84.78 90.6933 85.676 90.864C86.572 91.0347 87.4467 91.2693 88.3 91.568C89.6653 90.9707 91.2653 90.352 93.1 89.712C94.9347 89.072 96.172 88.752 96.812 88.752C97.7933 88.752 98.5187 88.9227 98.988 89.264C99.5 89.5627 99.756 90.2453 99.756 91.312C99.756 92.2933 99.18 92.9973 98.028 93.424C96.9187 93.8507 95.2333 94.256 92.972 94.64C94.636 96.6453 95.468 99.0773 95.468 101.936ZM82.156 107.056C84.6307 107.056 86.4227 106.544 87.532 105.52C88.684 104.496 89.26 102.96 89.26 100.912C89.26 97.5413 87.276 95.856 83.308 95.856C81.772 95.856 80.556 96.0267 79.66 96.368C78.8067 96.7093 78.1027 97.2853 77.548 98.096C76.78 99.12 76.396 100.507 76.396 102.256C76.396 103.621 76.9507 104.773 78.06 105.712C79.212 106.608 80.5773 107.056 82.156 107.056ZM76.396 124.528C76.396 125.253 77.0573 125.872 78.38 126.384C79.7453 126.939 81.196 127.216 82.732 127.216C84.4387 127.216 86.188 126.896 87.98 126.256C89.8147 125.659 90.732 124.848 90.732 123.824C90.732 122.331 89.4093 121.371 86.764 120.944C85.8253 120.773 84.46 120.453 82.668 119.984C82.4547 119.941 82.1987 119.877 81.9 119.792C81.644 119.707 81.3667 119.621 81.068 119.536C80.1293 119.877 79.1053 120.581 77.996 121.648C76.9293 122.757 76.396 123.717 76.396 124.528ZM110.56 108.08C110.56 109.701 110.795 110.96 111.264 111.856C111.776 112.709 112.416 113.136 113.184 113.136C113.611 113.136 114.016 113.115 114.4 113.072C114.784 112.987 115.168 112.944 115.552 112.944C115.979 112.944 116.341 113.157 116.64 113.584C116.981 114.011 117.152 114.48 117.152 114.992C117.152 116.016 116.661 116.827 115.68 117.424C114.741 117.979 113.461 118.256 111.84 118.256C110.688 118.256 109.515 117.915 108.32 117.232C107.168 116.507 106.208 115.397 105.44 113.904C104.672 112.368 104.288 110.469 104.288 108.208C104.288 103.344 104.373 99.2267 104.544 95.856C104.757 91.8453 104.864 86.7893 104.864 80.688C104.864 78.768 104.971 77.424 105.184 76.656C105.44 76.0587 105.845 75.6107 106.4 75.312C106.997 74.9707 107.616 74.8 108.256 74.8C108.896 74.8 109.451 74.9067 109.92 75.12C110.432 75.3333 110.773 75.6747 110.944 76.144C111.115 76.656 111.221 77.168 111.264 77.68C111.349 78.1493 111.392 78.832 111.392 79.728C111.392 81.4773 111.328 83.1627 111.2 84.784C111.115 86.7467 111.072 88.176 111.072 89.072C110.731 96.5813 110.56 102.917 110.56 108.08ZM124.781 76.912C126.274 77.04 127.576 77.4453 128.685 78.128C129.794 78.768 130.349 79.7493 130.349 81.072C130.349 82.0533 129.88 82.8427 128.941 83.44C128.045 83.9947 126.957 84.272 125.677 84.272C124.44 84.272 123.586 83.952 123.117 83.312C122.648 82.672 122.413 82.0107 122.413 81.328C122.413 80.048 122.541 78.9813 122.797 78.128C123.096 77.2747 123.757 76.8693 124.781 76.912ZM129.901 105.264V107.12C129.901 108.784 129.944 110.363 130.029 111.856C130.157 113.307 130.306 114.779 130.477 116.272C130.434 116.699 130.114 117.147 129.517 117.616C128.92 118.043 128.386 118.256 127.917 118.256C127.106 118.256 126.274 118.107 125.421 117.808C124.61 117.467 124.12 117.061 123.949 116.592C123.693 115.227 123.565 114.011 123.565 112.944C123.565 109.445 123.458 105.52 123.245 101.168C123.074 97.328 122.989 94.64 122.989 93.104C122.989 92.336 123.373 91.6747 124.141 91.12C124.909 90.5653 125.72 90.288 126.573 90.288C127.81 90.288 128.664 90.5653 129.133 91.12C129.645 91.6747 129.901 92.5493 129.901 93.744V105.264ZM155.812 103.6C156.153 103.813 156.815 104.219 157.796 104.816C158.82 105.371 159.503 106.032 159.844 106.8C160.185 107.568 160.356 108.635 160.356 110C160.356 111.536 159.908 112.901 159.012 114.096C158.116 115.248 156.964 116.144 155.556 116.784C154.532 117.253 153.273 117.616 151.78 117.872C150.329 118.128 149.177 118.256 148.324 118.256C147.471 118.256 146.361 118.128 144.996 117.872C143.673 117.616 142.756 117.381 142.244 117.168C140.921 116.4 139.769 115.461 138.788 114.352C137.849 113.243 137.38 112.112 137.38 110.96C137.38 110.107 137.657 109.445 138.212 108.976C138.767 108.464 139.492 108.208 140.388 108.208C140.815 108.208 141.263 108.379 141.732 108.72C142.201 109.019 142.521 109.339 142.692 109.68C143.161 110.789 143.951 111.621 145.06 112.176C146.169 112.731 147.3 113.008 148.452 113.008C149.945 113.008 151.332 112.773 152.612 112.304C153.892 111.792 154.532 111.109 154.532 110.256C154.532 109.872 154.425 109.573 154.212 109.36C154.041 109.104 153.785 108.848 153.444 108.592C152.847 108.165 151.951 107.824 150.756 107.568C149.561 107.269 148.793 107.077 148.452 106.992C146.703 106.608 144.996 106.032 143.332 105.264C141.668 104.453 140.345 103.493 139.364 102.384C138.383 101.275 137.892 99.8453 137.892 98.096C137.892 96.944 138.319 95.7493 139.172 94.512C140.025 93.232 140.985 92.336 142.052 91.824C142.82 91.5253 144.1 91.2053 145.892 90.864C147.727 90.5227 148.964 90.352 149.604 90.352C150.585 90.352 151.652 90.4587 152.804 90.672C153.956 90.8427 154.831 91.1413 155.428 91.568C156.58 92.2507 157.519 92.976 158.244 93.744C158.969 94.4693 159.332 95.3013 159.332 96.24C159.332 96.7093 159.225 97.2213 159.012 97.776C158.799 98.288 158.543 98.608 158.244 98.736C157.604 99.0347 156.857 99.184 156.004 99.184C155.62 99.184 155.3 99.0773 155.044 98.864C154.831 98.6507 154.532 98.3093 154.148 97.84C153.679 97.1147 153.231 96.688 152.804 96.56C152.292 96.432 151.545 96.2827 150.564 96.112C149.583 95.8987 148.921 95.792 148.58 95.792C147.599 95.792 146.575 96.0693 145.508 96.624C144.484 97.1787 143.972 97.8187 143.972 98.544C143.972 98.928 144.121 99.2267 144.42 99.44C144.761 99.6533 145.103 99.8453 145.444 100.016C145.828 100.187 146.084 100.293 146.212 100.336C147.108 100.763 148.089 101.125 149.156 101.424C150.265 101.723 150.948 101.915 151.204 102C153.508 102.555 155.044 103.088 155.812 103.6ZM192.504 118.192C189.304 118.192 187.149 116.955 186.04 114.48C185.485 113.243 185.123 111.643 184.952 109.68C184.781 107.675 184.696 105.328 184.696 102.64V100.656C184.696 97.584 183.672 96.048 181.624 96.048C180.429 96.048 179.235 96.6667 178.04 97.904C176.845 99.0987 175.843 100.699 175.032 102.704C174.264 104.667 173.88 106.715 173.88 108.848C173.88 110.256 173.944 111.536 174.072 112.688C174.157 114.139 174.2 115.248 174.2 116.016C174.2 117.467 173.197 118.192 171.192 118.192C170.211 118.192 169.336 117.979 168.568 117.552C167.843 117.125 167.48 116.571 167.48 115.888C167.651 113.712 167.736 111.024 167.736 107.824L167.672 99.376C167.672 98.0107 167.565 92.9547 167.352 84.208L167.16 78.32C167.16 77.3813 167.587 76.5707 168.44 75.888C169.293 75.1627 170.253 74.8 171.32 74.8C172.259 74.8 172.941 75.0133 173.368 75.44C173.795 75.8667 174.008 76.528 174.008 77.424C174.008 78.5333 173.987 79.8347 173.944 81.328C173.901 82.7787 173.859 83.888 173.816 84.656C173.688 86.832 173.624 89.008 173.624 91.184C173.624 93.3173 173.581 95.0027 173.496 96.24C174.776 94.3627 176.227 92.976 177.848 92.08C179.512 91.1413 181.453 90.672 183.672 90.672C185.293 90.672 186.787 91.3973 188.152 92.848C189.56 94.256 190.413 95.8773 190.712 97.712C190.797 98.6507 190.84 100.037 190.84 101.872L190.776 106.544C190.776 107.269 190.819 108.4 190.904 109.936C190.947 110.661 191.181 111.429 191.608 112.24C192.077 113.051 192.611 113.648 193.208 114.032C193.763 114.373 194.125 114.715 194.296 115.056C194.467 115.397 194.552 115.781 194.552 116.208C194.552 116.635 194.36 117.083 193.976 117.552C193.592 117.979 193.101 118.192 192.504 118.192ZM38.344 183.416C38.344 185.421 37.8747 187.149 36.936 188.6C36.04 190.008 34.5467 191.309 32.456 192.504C31.048 193.357 29.4053 193.997 27.528 194.424C25.6507 194.851 23.752 195.064 21.832 195.064C19.8693 195.064 17.4373 194.424 14.536 193.144C12.4453 192.12 10.7813 190.904 9.544 189.496C8.34933 188.088 7.752 186.552 7.752 184.888C7.752 183.736 8.008 182.904 8.52 182.392C9.032 181.837 9.864 181.56 11.016 181.56C11.6133 181.56 12.232 181.816 12.872 182.328C13.512 182.797 13.896 183.267 14.024 183.736C14.6213 185.485 15.6667 186.829 17.16 187.768C18.6533 188.664 20.5093 189.112 22.728 189.112C25.288 189.112 27.4213 188.643 29.128 187.704C30.8773 186.765 31.752 185.507 31.752 183.928C31.752 182.392 30.8133 181.027 28.936 179.832C27.0587 178.637 25.1387 177.805 23.176 177.336C20.36 176.568 17.864 175.651 15.688 174.584C13.4267 173.475 11.7413 172.109 10.632 170.488C9.52267 168.867 8.968 167.16 8.968 165.368C8.968 163.704 9.544 162.019 10.696 160.312C11.848 158.563 13.2133 157.304 14.792 156.536C15.6453 156.109 17.096 155.661 19.144 155.192C21.2347 154.68 22.7493 154.424 23.688 154.424C24.9253 154.424 26.2907 154.573 27.784 154.872C29.2773 155.171 30.4933 155.597 31.432 156.152C33.3093 157.219 34.696 158.179 35.592 159.032C36.488 159.885 36.936 160.952 36.936 162.232C36.936 163 36.6373 163.683 36.04 164.28C35.4853 164.877 34.504 165.176 33.096 165.176C32.7547 165.176 32.4133 165.027 32.072 164.728C31.7307 164.429 31.304 163.981 30.792 163.384C30.1093 162.488 29.448 161.891 28.808 161.592C28.168 161.379 27.2293 161.144 25.992 160.888C24.7973 160.632 23.7307 160.504 22.792 160.504C21.768 160.504 20.7013 160.717 19.592 161.144C18.4827 161.571 17.544 162.189 16.776 163C16.0507 163.768 15.688 164.664 15.688 165.688C15.688 166.541 16.072 167.288 16.84 167.928C17.6507 168.525 18.6107 169.016 19.72 169.4C21 169.912 22.3867 170.36 23.88 170.744C25.8427 171.341 27.4427 171.896 28.68 172.408C29.96 172.877 31.1973 173.475 32.392 174.2C34.4827 175.437 35.9973 176.717 36.936 178.04C37.8747 179.32 38.344 181.112 38.344 183.416ZM67.0495 173.624C67.0495 175.501 66.0895 176.44 64.1695 176.44C63.5295 176.44 62.9962 176.291 62.5695 175.992C62.1428 175.693 61.6735 175.245 61.1615 174.648C59.8815 173.24 58.7722 172.536 57.8335 172.536C56.5962 172.536 55.3802 172.899 54.1855 173.624C53.0335 174.349 52.0948 175.373 51.3695 176.696C50.6442 178.019 50.2815 179.491 50.2815 181.112C50.2815 182.904 50.6228 184.397 51.3055 185.592C52.0308 186.787 53.1402 187.811 54.6335 188.664C55.1882 188.963 55.8282 189.197 56.5535 189.368C57.3215 189.539 57.9828 189.624 58.5375 189.624C59.7748 189.624 61.3322 189.133 63.2095 188.152C63.8922 187.811 64.4682 187.555 64.9375 187.384C65.4068 187.213 65.8975 187.128 66.4095 187.128C66.8788 187.128 67.4122 187.341 68.0095 187.768C68.6068 188.195 68.9055 188.728 68.9055 189.368C68.9055 190.648 68.3082 191.736 67.1135 192.632C65.9188 193.485 64.4468 194.147 62.6975 194.616C60.9908 195.043 59.3482 195.256 57.7695 195.256C55.2522 195.256 52.9055 194.68 50.7295 193.528C48.5962 192.376 46.8895 190.797 45.6095 188.792C44.3295 186.744 43.6895 184.44 43.6895 181.88C43.6895 179.149 44.3082 176.653 45.5455 174.392C46.7828 172.131 48.4468 170.36 50.5375 169.08C52.6282 167.8 54.9108 167.16 57.3855 167.16C58.7935 167.16 60.2442 167.416 61.7375 167.928C63.2308 168.44 64.4895 169.187 65.5135 170.168C66.5375 171.149 67.0495 172.301 67.0495 173.624ZM100.442 195.192C97.2415 195.192 95.0868 193.955 93.9775 191.48C93.4228 190.243 93.0602 188.643 92.8895 186.68C92.7188 184.675 92.6335 182.328 92.6335 179.64V177.656C92.6335 174.584 91.6095 173.048 89.5615 173.048C88.3668 173.048 87.1722 173.667 85.9775 174.904C84.7828 176.099 83.7802 177.699 82.9695 179.704C82.2015 181.667 81.8175 183.715 81.8175 185.848C81.8175 187.256 81.8815 188.536 82.0095 189.688C82.0948 191.139 82.1375 192.248 82.1375 193.016C82.1375 194.467 81.1348 195.192 79.1295 195.192C78.1482 195.192 77.2735 194.979 76.5055 194.552C75.7802 194.125 75.4175 193.571 75.4175 192.888C75.5882 190.712 75.6735 188.024 75.6735 184.824L75.6095 176.376C75.6095 175.011 75.5028 169.955 75.2895 161.208L75.0975 155.32C75.0975 154.381 75.5242 153.571 76.3775 152.888C77.2308 152.163 78.1908 151.8 79.2575 151.8C80.1962 151.8 80.8788 152.013 81.3055 152.44C81.7322 152.867 81.9455 153.528 81.9455 154.424C81.9455 155.533 81.9242 156.835 81.8815 158.328C81.8388 159.779 81.7962 160.888 81.7535 161.656C81.6255 163.832 81.5615 166.008 81.5615 168.184C81.5615 170.317 81.5188 172.003 81.4335 173.24C82.7135 171.363 84.1642 169.976 85.7855 169.08C87.4495 168.141 89.3908 167.672 91.6095 167.672C93.2308 167.672 94.7242 168.397 96.0895 169.848C97.4975 171.256 98.3508 172.877 98.6495 174.712C98.7348 175.651 98.7775 177.037 98.7775 178.872L98.7135 183.544C98.7135 184.269 98.7562 185.4 98.8415 186.936C98.8842 187.661 99.1188 188.429 99.5455 189.24C100.015 190.051 100.548 190.648 101.146 191.032C101.7 191.373 102.063 191.715 102.234 192.056C102.404 192.397 102.49 192.781 102.49 193.208C102.49 193.635 102.298 194.083 101.914 194.552C101.53 194.979 101.039 195.192 100.442 195.192ZM132.361 174.456C132.702 175.053 132.98 175.928 133.193 177.08C133.406 178.189 133.513 179.192 133.513 180.088C133.513 181.752 133.15 184.12 132.425 187.192C129.481 192.568 125.129 195.256 119.369 195.256C117.236 195.256 115.06 194.552 112.841 193.144C110.622 191.736 109.086 190.115 108.233 188.28C107.081 184.611 106.505 182.285 106.505 181.304C106.505 179.597 106.868 177.784 107.593 175.864C108.361 173.944 109.321 172.28 110.473 170.872C111.198 169.891 112.5 169.059 114.377 168.376C116.254 167.651 117.961 167.288 119.497 167.288C122.484 167.288 125.022 167.864 127.113 169.016C129.204 170.125 130.953 171.939 132.361 174.456ZM126.793 184.76C127.006 184.205 127.113 182.776 127.113 180.472C127.113 179.235 126.878 178.019 126.409 176.824C125.982 175.629 125.342 174.605 124.489 173.752C124.404 173.667 124.169 173.539 123.785 173.368C123.401 173.155 122.868 172.963 122.185 172.792C121.545 172.579 120.798 172.472 119.945 172.472C117.556 172.472 115.806 173.432 114.697 175.352C113.588 177.272 113.033 179.448 113.033 181.88C113.033 182.307 113.14 183.117 113.353 184.312C113.609 185.507 113.822 186.253 113.993 186.552C114.121 186.851 114.441 187.277 114.953 187.832C115.508 188.344 116.169 188.813 116.937 189.24C117.748 189.624 118.58 189.816 119.433 189.816C121.353 189.816 122.889 189.368 124.041 188.472C125.193 187.533 126.11 186.296 126.793 184.76ZM164.983 174.456C165.324 175.053 165.602 175.928 165.815 177.08C166.028 178.189 166.135 179.192 166.135 180.088C166.135 181.24 166.007 182.52 165.751 183.928C165.495 185.336 165.26 186.424 165.047 187.192C162.103 192.568 157.751 195.256 151.991 195.256C149.858 195.256 147.682 194.552 145.463 193.144C143.244 191.736 141.708 190.115 140.855 188.28C139.703 184.653 139.127 182.328 139.127 181.304C139.127 179.597 139.49 177.784 140.215 175.864C140.983 173.944 141.943 172.28 143.095 170.872C143.863 169.891 145.186 169.059 147.063 168.376C148.94 167.651 150.647 167.288 152.183 167.288C155.17 167.288 157.687 167.864 159.735 169.016C161.826 170.125 163.575 171.939 164.983 174.456ZM159.415 184.76C159.628 184.333 159.735 182.904 159.735 180.472C159.735 179.235 159.5 178.019 159.031 176.824C158.604 175.629 157.964 174.605 157.111 173.752C157.026 173.667 156.791 173.539 156.407 173.368C156.023 173.155 155.49 172.963 154.807 172.792C154.167 172.579 153.42 172.472 152.567 172.472C150.178 172.472 148.428 173.432 147.319 175.352C146.21 177.272 145.655 179.448 145.655 181.88C145.655 182.264 145.783 183.053 146.039 184.248C146.295 185.443 146.487 186.211 146.615 186.552C146.956 187.149 147.639 187.853 148.663 188.664C149.73 189.432 150.882 189.816 152.119 189.816C154.039 189.816 155.554 189.368 156.663 188.472C157.815 187.533 158.732 186.296 159.415 184.76ZM179.435 185.08C179.435 186.701 179.67 187.96 180.139 188.856C180.651 189.709 181.291 190.136 182.059 190.136C182.486 190.136 182.891 190.115 183.275 190.072C183.659 189.987 184.043 189.944 184.427 189.944C184.854 189.944 185.216 190.157 185.515 190.584C185.856 191.011 186.027 191.48 186.027 191.992C186.027 193.016 185.536 193.827 184.555 194.424C183.616 194.979 182.336 195.256 180.715 195.256C179.563 195.256 178.39 194.915 177.195 194.232C176.043 193.507 175.083 192.397 174.315 190.904C173.547 189.368 173.163 187.469 173.163 185.208C173.163 180.344 173.248 176.227 173.419 172.856C173.632 168.845 173.739 163.789 173.739 157.688C173.739 155.768 173.846 154.424 174.059 153.656C174.315 153.059 174.72 152.611 175.275 152.312C175.872 151.971 176.491 151.8 177.131 151.8C177.771 151.8 178.326 151.907 178.795 152.12C179.307 152.333 179.648 152.675 179.819 153.144C179.99 153.656 180.096 154.168 180.139 154.68C180.224 155.149 180.267 155.832 180.267 156.728C180.267 158.477 180.203 160.163 180.075 161.784C179.99 163.747 179.947 165.176 179.947 166.072C179.606 173.581 179.435 179.917 179.435 185.08Z" fill="#E83838"/>
</svg>
